<svg width="24" height="24" viewBox="0 0 24 24" fill="none" xmlns="http://www.w3.org/2000/svg">
<g id="Group">
<g id="Group_2">
<path id="Path" fill-rule="evenodd" clip-rule="evenodd" d="M18.9571 21.0037H5.04331C3.93785 21.0037 3.04248 20.1083 3.04248 19.0028V10.9995C3.04248 9.89403 3.93785 8.99866 5.04331 8.99866H18.9571C20.0626 8.99866 20.9579 9.89403 20.9579 10.9995V19.0028C20.9579 20.1083 20.0616 21.0037 18.9571 21.0037Z" stroke="white" stroke-linecap="round" stroke-linejoin="round"/>
<path id="Path_2" d="M11.9893 15.4404C12.5755 16.0266 12.5755 16.977 11.9893 17.5623C11.4031 18.1475 10.4527 18.1485 9.86742 17.5623C9.28117 16.976 9.28117 16.0256 9.86742 15.4404C10.4537 14.8552 11.4031 14.8552 11.9893 15.4404" stroke="white" stroke-linecap="round" stroke-linejoin="round"/>
<path id="Path_3" d="M14.382 12.7943L12.4292 12.1431V16.5019" stroke="white" stroke-linecap="round" stroke-linejoin="round"/>
<path id="Path_4" d="M4.7793 8.99869V7.99827C4.7793 6.89281 5.67467 5.99744 6.78013 5.99744H17.2195C18.3249 5.99744 19.2203 6.89281 19.2203 7.99827V8.99869" stroke="white" stroke-linecap="round" stroke-linejoin="round"/>
<path id="Path_5" d="M6.51416 5.99747V4.99705C6.51416 3.89159 7.40953 2.99622 8.51499 2.99622H15.4869C16.5924 2.99622 17.4877 3.89159 17.4877 4.99705V5.99747" stroke="white" stroke-linecap="round" stroke-linejoin="round"/>
</g>
</g>
</svg>
