<svg width="24" height="24" viewBox="0 0 24 24" fill="none" xmlns="http://www.w3.org/2000/svg">
<g id="Group">
<path id="Path" d="M14.0012 21.004H4.99742C3.89239 21.004 2.99658 20.1081 2.99658 19.0031V9.99937C2.99658 8.89434 3.89239 7.99854 4.99742 7.99854H18.0028C19.1079 7.99854 20.0037 8.89434 20.0037 9.99937V13.0006" stroke="white" stroke-linecap="round" stroke-linejoin="round"/>
<path id="Path_2" fill-rule="evenodd" clip-rule="evenodd" d="M22.0042 17.0021V17.0021C22.0042 19.7647 19.7647 22.0042 17.0021 22.0042V22.0042C14.2395 22.0042 12 19.7647 12 17.0021V17.0021C12 14.2395 14.2395 12 17.0021 12V12C19.7647 12 22.0042 14.2395 22.0042 17.0021Z" stroke="white" stroke-linecap="round" stroke-linejoin="round"/>
<path id="Path_3" fill-rule="evenodd" clip-rule="evenodd" d="M16.3549 15.2015L18.7279 16.6021C18.8676 16.6845 18.9533 16.8346 18.9533 16.9968C18.9533 17.159 18.8676 17.3091 18.7279 17.3915L16.3549 18.792C16.2131 18.8763 16.037 18.8779 15.8937 18.7961C15.7504 18.7143 15.6622 18.5618 15.6626 18.3969V15.6017C15.6604 15.4359 15.7479 15.2817 15.8915 15.1987C16.0351 15.1157 16.2124 15.1168 16.3549 15.2015V15.2015Z" stroke="white" stroke-linecap="round" stroke-linejoin="round"/>
<path id="Path_4" d="M5.49756 4.99728H17.5026" stroke="white" stroke-linecap="round" stroke-linejoin="round"/>
<path id="Path_5" d="M7.49805 1.99606H16.5018" stroke="white" stroke-linecap="round" stroke-linejoin="round"/>
</g>
</svg>
