<svg width="32" height="32" viewBox="0 0 32 32" fill="none" xmlns="http://www.w3.org/2000/svg">
<g id="Group">
<g id="Group_2">
<path id="Path" d="M6.66663 7.99992H25.3333" stroke="white" stroke-width="1.5" stroke-linecap="round" stroke-linejoin="round"/>
<path id="Path_2" d="M8 3.99992H24" stroke="white" stroke-width="1.5" stroke-linecap="round" stroke-linejoin="round"/>
<path id="Path_3" d="M18.668 28H6.66667C5.19333 28 4 26.8067 4 25.3333V14.6667C4 13.1933 5.19333 12 6.66667 12H25.3333C26.8067 12 28 13.1933 28 14.6667V18.6667" stroke="white" stroke-width="1.5" stroke-linecap="round" stroke-linejoin="round"/>
<path id="Path_4" d="M25.3254 22.6667H20.0081" stroke="white" stroke-width="1.5" stroke-linecap="round" stroke-linejoin="round"/>
<path id="Path_5" d="M22.6667 25.3254V20.0081" stroke="white" stroke-width="1.5" stroke-linecap="round" stroke-linejoin="round"/>
<path id="Path_6" d="M16 22.6667C16 18.9853 18.9853 16 22.6667 16C26.348 16 29.3333 18.9853 29.3333 22.6667C29.3333 26.3493 26.348 29.3333 22.6667 29.3333C18.9853 29.3333 16 26.3493 16 22.6667" stroke="white" stroke-width="1.5" stroke-linecap="round" stroke-linejoin="round"/>
</g>
</g>
</svg>
