<svg width="32" height="32" viewBox="0 0 32 32" fill="none" xmlns="http://www.w3.org/2000/svg">
<g id="Group">
<g id="Group_2">
<path id="Path" fill-rule="evenodd" clip-rule="evenodd" d="M24.7094 12H7.29071C6.53338 12 5.92004 11.3867 5.92004 10.6307V9.36933C5.92004 8.61333 6.53338 8 7.29071 8H24.7107C25.4667 8 26.08 8.61333 26.08 9.36933V10.6293C26.08 11.3867 25.4667 12 24.7094 12V12Z" stroke="white" stroke-width="1.5" stroke-linecap="round" stroke-linejoin="round"/>
<path id="Path_2" d="M24 12L22.8707 25.5547C22.7547 26.9373 21.6 28 20.2133 28H11.7867C10.4 28 9.244 26.9373 9.12933 25.5547L8 12" stroke="white" stroke-width="1.5" stroke-linecap="round" stroke-linejoin="round"/>
<path id="Path_3" d="M10.6667 8L12.2987 4.73733C12.5241 4.28533 12.9854 4 13.4907 4H18.5094C19.0147 4 19.4761 4.28533 19.7014 4.73733L21.3334 8" stroke="white" stroke-width="1.5" stroke-linecap="round" stroke-linejoin="round"/>
<path id="Path_4" d="M16 16V24" stroke="white" stroke-width="1.5" stroke-linecap="round" stroke-linejoin="round"/>
<path id="Path_5" d="M20.0001 16L19.4534 24" stroke="white" stroke-width="1.5" stroke-linecap="round" stroke-linejoin="round"/>
<path id="Path_6" d="M12 16L12.5467 24" stroke="white" stroke-width="1.5" stroke-linecap="round" stroke-linejoin="round"/>
</g>
</g>
</svg>
