<svg width="32" height="32" viewBox="0 0 32 32" fill="none" xmlns="http://www.w3.org/2000/svg">
<g id="Group">
<g id="Group_2">
<path id="Path" d="M8 6.66667H24" stroke="white" stroke-width="1.5" stroke-linecap="round" stroke-linejoin="round"/>
<path id="Path_2" d="M10.6667 2.66667H21.3334" stroke="white" stroke-width="1.5" stroke-linecap="round" stroke-linejoin="round"/>
<path id="Path_3" fill-rule="evenodd" clip-rule="evenodd" d="M26.4534 29.3334H5.54675C3.95608 29.3334 2.66675 28.044 2.66675 26.4534V13.5467C2.66675 11.956 3.95608 10.6667 5.54675 10.6667H26.4534C28.0441 10.6667 29.3334 11.956 29.3334 13.5467V26.4534C29.3334 28.044 28.0441 29.3334 26.4534 29.3334Z" stroke="white" stroke-width="1.5" stroke-linecap="round" stroke-linejoin="round"/>
<path id="Path_4" d="M13.081 22.4017C13.862 23.1828 13.862 24.4491 13.081 25.2301C12.2999 26.0112 11.0336 26.0112 10.2525 25.2301C9.47149 24.4491 9.47149 23.1828 10.2525 22.4017C11.0336 21.6207 12.2999 21.6207 13.081 22.4017" stroke="white" stroke-width="1.5" stroke-linecap="round" stroke-linejoin="round"/>
<path id="Path_5" d="M20.4142 21.0684C21.1953 21.8494 21.1953 23.1158 20.4142 23.8968C19.6332 24.6779 18.3668 24.6779 17.5858 23.8968C16.8047 23.1158 16.8047 21.8494 17.5858 21.0684C18.3668 20.2873 19.6332 20.2873 20.4142 21.0684" stroke="white" stroke-width="1.5" stroke-linecap="round" stroke-linejoin="round"/>
<path id="Path_6" d="M13.6667 23.816V17.3853C13.6667 16.84 13.9987 16.3493 14.5054 16.148L19.1721 14.2813C20.0481 13.9307 21.0001 14.576 21.0001 15.5187V22.4827" stroke="white" stroke-width="1.5" stroke-linecap="round" stroke-linejoin="round"/>
</g>
</g>
</svg>
